<svg width="138" height="33" viewBox="0 0 138 33" fill="none" xmlns="http://www.w3.org/2000/svg">
<path d="M34.7539 22.8949L35.9461 21.5871C36.6679 22.8014 38.8951 23.7669 40.9339 23.7978C43.0675 23.8288 44.8237 22.864 44.8237 21.0576C44.8237 19.1584 42.7219 18.6599 40.5571 18.0369C38.1727 17.3514 35.6005 16.5111 35.6005 13.6768C35.6005 10.8425 38.4241 9.31668 41.1217 9.31668C43.0981 9.31668 45.1057 10.0957 46.2043 11.0611L44.9809 12.4625C44.1337 11.559 42.7537 11.0611 41.4673 10.9986C39.6793 10.9366 37.6711 11.684 37.6711 13.4273C37.6711 15.3271 39.5533 15.8875 41.5927 16.417C44.1025 17.1025 46.8949 17.8184 46.8949 20.9326C46.8949 23.6108 44.3539 25.5101 41.0287 25.5101C38.4559 25.5101 35.7583 24.3892 34.7539 22.8944V22.8949Z" fill="#9C9EA1"/>
<path d="M49.2168 5.14535C49.2168 4.30441 49.9386 3.61951 50.754 3.61951C51.5694 3.61951 52.2912 4.30501 52.2912 5.14535C52.2912 5.98569 51.6006 6.67118 50.754 6.67118C49.9074 6.67118 49.2168 5.98569 49.2168 5.14535ZM49.719 9.62995H51.7896V25.1992H49.719V9.62935V9.62995Z" fill="#9C9EA1"/>
<path d="M69.1061 15.3593V25.1998H67.0361V15.5457C67.0361 13.086 65.0597 11.1546 62.5187 11.1546C59.9777 11.1546 57.8753 13.1474 57.8753 15.6392V25.1992H55.8047V9.62936H57.7187L57.8129 11.9646C58.9421 10.3452 60.8249 9.31728 63.0209 9.31728C66.4715 9.31728 69.1067 11.9026 69.1067 15.3587L69.1061 15.3593Z" fill="#9C9EA1"/>
<path d="M85.8915 18.0995H73.3113C73.5627 21.4001 75.5385 23.7043 78.8013 23.7043C80.8401 23.7043 82.2207 22.9259 83.4447 21.0576L84.8877 22.085C83.6325 24.2338 81.5619 25.5101 78.7389 25.5101C74.1903 25.5101 71.3037 21.9909 71.3037 17.4134C71.3037 12.8359 74.1903 9.31668 78.7389 9.31668C83.2875 9.31668 85.9233 12.6489 85.9233 17.2883C85.9233 17.5378 85.9233 17.8178 85.8921 18.0983L85.8915 18.0995ZM73.3425 16.4801H84.0405C83.7579 13.3034 81.8445 11.0927 78.7701 11.0927C75.6957 11.0927 73.6881 13.335 73.3431 16.4801H73.3425Z" fill="#9C9EA1"/>
<path d="M101.892 9.62936V32.9844H99.8842V22.49C98.629 24.3273 96.6526 25.5107 94.2058 25.5107C89.8138 25.5107 86.959 21.8986 86.959 17.414C86.959 12.9294 89.8138 9.31728 94.2058 9.31728C96.6532 9.31728 98.6296 10.5013 99.8842 12.3386V9.62936H101.892ZM99.8842 18.8779V15.9507C99.3196 13.1795 97.249 11.1552 94.4878 11.1552C91.1314 11.1552 88.9666 13.927 88.9666 17.4146C88.9666 20.9022 91.1314 23.674 94.4878 23.674C97.2484 23.674 99.319 21.6502 99.8842 18.8791V18.8779Z" fill="#9C9EA1"/>
<path d="M118.676 9.62935V25.1992H116.794L116.669 22.8324C115.54 24.4523 113.657 25.5107 111.555 25.5107C108.104 25.5107 105.375 22.7705 105.375 19.3764V9.62935H107.446V19.1584C107.446 21.649 109.454 23.6733 111.994 23.6733C114.535 23.6733 116.638 21.6496 116.638 19.1584V9.62935H118.676Z" fill="#9C9EA1"/>
<path d="M133.986 15.0162V25.1992H132.135L132.041 22.6454C130.19 24.4208 127.993 25.5101 125.797 25.5101C123.006 25.5101 121.029 23.5173 121.029 20.7462C121.029 17.975 123.132 15.4522 128.841 16.573L131.978 17.165V14.9227C131.978 12.2445 130.065 11.0927 127.618 11.0927C125.547 11.0927 123.853 11.9336 122.974 13.4904L121.531 12.2445C122.629 10.4697 124.763 9.31728 127.743 9.31728C131.226 9.31728 133.986 11.1546 133.986 15.0156L133.986 15.0162ZM131.978 20.7777V18.754L128.872 18.1001C124.575 17.2282 123.132 18.8475 123.132 20.6538C123.132 22.4602 124.355 23.6745 126.237 23.6745C128.276 23.6745 130.222 22.5537 131.978 20.7789V20.7777Z" fill="#9C9EA1"/>
<path d="M7.01404 13.6667C6.81304 10.2178 8.13303 6.8159 10.6398 4.38898C9.36483 4.54085 8.09223 4.8958 6.87004 5.47529C0.853838 8.32982 -1.69256 15.4831 1.18324 21.4543C2.89384 25.0062 6.13624 27.3396 9.74883 28.0466C8.58243 27.018 7.59784 25.7459 6.88384 24.2612C5.20264 20.7682 5.37784 16.872 7.01464 13.6667H7.01404Z" fill="#5FBA46"/>
<path d="M29.9606 7.80216C27.0842 1.83104 19.8776 -0.695348 13.8626 2.1586C12.6386 2.73867 11.561 3.49981 10.6406 4.38958C14.0774 3.98102 17.5358 5.06733 20.105 7.33345C23.7176 8.04217 26.9594 10.375 28.6694 13.9258C29.3654 15.3724 29.7416 16.8893 29.8298 18.3972C31.466 15.1919 31.6406 11.2957 29.9606 7.80216Z" fill="#E01B22"/>
<path d="M7.01367 13.6667C8.17647 11.3928 10.0725 9.46676 12.5703 8.28159C15.0087 7.12441 17.6421 6.85164 20.1045 7.33285C17.5353 5.06673 14.0775 3.98102 10.6401 4.38898C8.13267 6.8159 6.81267 10.2172 7.01427 13.6667H7.01367Z" fill="#FFD300"/>
<path d="M20.5024 24.8692C19.5832 25.759 18.5044 26.519 17.2816 27.0996C14.842 28.2568 12.2098 28.5296 9.74805 28.0466C13.27 31.1566 18.4618 32.0494 22.9816 29.9065C27.5404 27.7434 30.103 23.1111 29.8288 18.3973C28.6672 20.6711 26.77 22.5984 24.2734 23.7829C23.05 24.3636 21.7774 24.7186 20.5024 24.8692Z" fill="#3953A3"/>
<path d="M20.5026 24.8692C15.5052 25.4624 10.4664 22.8944 8.17379 18.1388C7.47719 16.6921 7.10219 15.1746 7.01399 13.6673C5.37779 16.8726 5.20259 20.7688 6.88319 24.2618C7.59719 25.7471 8.58179 27.0186 9.74819 28.0472C12.21 28.5296 14.8428 28.2574 17.2818 27.1002C18.5046 26.5195 19.5828 25.7596 20.5026 24.8698V24.8692Z" fill="#00B2EF"/>
<path d="M20.1041 7.33345C21.2705 8.36378 22.2527 9.63471 22.9673 11.1195C25.2581 15.8774 24.1067 21.3828 20.5019 24.8698C21.7769 24.7192 23.0495 24.3642 24.2729 23.7835C26.7695 22.599 28.6667 20.6717 29.8283 18.3978C29.7401 16.8899 29.3639 15.373 28.6679 13.9263C26.9573 10.3756 23.7161 8.04277 20.1035 7.33405L20.1041 7.33345Z" fill="#EF67A5"/>
<path d="M133.986 7.32035H135.616V7.62245H134.976V9.31825H134.624V7.62245H133.986V7.32035Z" fill="#9C9EA1"/>
<path d="M135.845 7.32035H136.341L136.896 8.88371H136.902L137.443 7.32035H137.933V9.31728H137.598V7.77596H137.593L137.035 9.31728H136.744L136.186 7.77596H136.181V9.31728H135.845V7.32035H135.845Z" fill="#9C9EA1"/>
</svg>
