<?xml version="1.0" encoding="utf-8"?>
<!-- Generator: Adobe Illustrator 26.0.1, SVG Export Plug-In . SVG Version: 6.00 Build 0)  -->
<svg version="1.1" id="Calque_1" xmlns="http://www.w3.org/2000/svg" xmlns:xlink="http://www.w3.org/1999/xlink" x="0px" y="0px"
	 viewBox="0 0 803 200.6" style="enable-background:new 0 0 803 200.6;" xml:space="preserve">
<style type="text/css">
	.st0{fill:url(#SVGID_1_);}
	.st1{fill:url(#SVGID_00000034048674157964355470000015242791897183084726_);}
	.st2{fill:url(#SVGID_00000005984182495668437690000001463972354620737713_);}
	.st3{fill:url(#SVGID_00000060731241124608000550000013750158105069964963_);}
	.st4{fill:url(#SVGID_00000148621373412801816050000005016101575170412454_);}
	.st5{fill:url(#SVGID_00000127745096289628134790000006792272348922565801_);}
	.st6{fill:url(#SVGID_00000129174872986989567110000002766062228257360001_);}
	.st7{fill:url(#SVGID_00000041288005436954349740000013248652613019640964_);}
	.st8{fill:url(#SVGID_00000011719672362768394350000006958246351100403853_);}
	.st9{fill:url(#SVGID_00000107550197729267212210000016064423388877477260_);}
	.st10{fill:#E68B70;}
	.st11{fill:#FF854A;}
	.st12{fill:#FF854B;}
</style>
<g id="Layer_2_00000143600379368033675330000002021177795804032683_">
	<g>
		
			<linearGradient id="SVGID_1_" gradientUnits="userSpaceOnUse" x1="590.183" y1="420.2284" x2="19.677" y2="420.2284" gradientTransform="matrix(1 0 0 1 0 -337.96)">
			<stop  offset="0" style="stop-color:#FF854A"/>
			<stop  offset="0.34" style="stop-color:#87A3FF"/>
			<stop  offset="0.84" style="stop-color:#0040BF"/>
		</linearGradient>
		<path class="st0" d="M39.3,148.4c-9.5-3.9-16.7-9.5-21.3-16.4c-4.6-6.9-7.2-14.7-7.5-23.9h24.2c0.7,9.8,4.3,17,11.5,21.9
			c7.2,4.9,17.3,7.5,30.8,7.5s22.3-2,28.5-6.2c6.2-4.3,9.5-9.8,9.5-17.3c0-6.2-1.6-10.8-4.9-13.7c-3.3-2.9-8.2-5.2-14.4-6.5
			s-13.7-2.6-22.9-3.9c-11.8-1.6-22.3-3.6-31.1-6.2c-8.8-2.6-15.7-6.2-20.3-11.5s-6.9-12.4-6.9-21.6c0-8.5,2.3-16,7.2-21.9
			s11.8-10.5,20.9-13.7s19.6-4.6,31.7-4.6c18.3,0,32.4,3.6,42.9,10.8c10.1,7.2,15.7,17.3,16.4,30.4H110c-0.7-8.5-3.9-14.7-10.5-19
			c-6.5-3.9-15.4-6.2-26.2-6.2s-20,2-25.9,5.9c-6.2,3.9-9.2,9.2-9.2,15.7c0,5.6,1.6,9.8,4.6,12.4c2.9,2.6,7.5,4.9,13.4,6.2
			c5.9,1.3,13.7,2.6,22.9,3.9c9.2,1.3,17.3,2.6,24.9,4.3c7.2,1.6,13.7,3.9,19,6.9c5.2,2.9,9.2,6.9,12.1,11.8
			c2.6,4.9,4.3,11.5,4.3,19.3c0,12.8-5.2,22.9-16,30.4s-26.2,11.1-46.8,11.1C60.9,154.3,48.8,152.3,39.3,148.4z"/>
		
			<linearGradient id="SVGID_00000119116594299940960050000012439994087942535059_" gradientUnits="userSpaceOnUse" x1="590.183" y1="439.866" x2="19.677" y2="439.866" gradientTransform="matrix(1 0 0 1 0 -337.96)">
			<stop  offset="0" style="stop-color:#FF854A"/>
			<stop  offset="0.35" style="stop-color:#87A3FF"/>
			<stop  offset="0.84" style="stop-color:#0040BF"/>
			<stop  offset="0.84" style="stop-color:#0040BF"/>
		</linearGradient>
		<path style="fill:url(#SVGID_00000119116594299940960050000012439994087942535059_);" d="M325.3,147.7c-8.8-4.3-15.7-10.1-20.6-18
			c-4.9-7.9-7.2-17-7.2-27.8s2.3-20.3,7.2-28.1c4.9-7.9,11.8-14.1,20.3-18.3c8.8-4.3,19-6.5,30.8-6.5c12.4,0,22.9,2.3,31.7,6.9
			s15.4,11.1,19.6,19.6s6.2,18.7,5.6,30.8h-92.6c0.3,10.1,3.6,18.3,10.5,23.9c6.5,5.6,15.7,8.5,26.8,8.5c8.8,0,16-1.6,21.9-4.6
			c5.9-3.3,9.8-7.5,11.5-12.8h21.6c-1,6.5-3.9,12.4-9.2,17.7c-5.2,4.9-11.8,8.8-19.6,11.8c-7.9,2.6-17,4.3-26.5,4.3
			C344.6,154.3,334.2,152,325.3,147.7L325.3,147.7z M330.9,72.1c-6.2,4.9-10.1,11.8-11.1,20.3h70.4c-0.3-8.8-3.6-15.7-9.8-20.6
			c-6.2-4.9-14.4-7.2-24.5-7.2C345.6,64.6,337.1,67.2,330.9,72.1z"/>
		
			<linearGradient id="SVGID_00000102529271747129426220000006525143825456463752_" gradientUnits="userSpaceOnUse" x1="590.183" y1="454.7579" x2="19.677" y2="454.7579" gradientTransform="matrix(1 0 0 1 0 -337.96)">
			<stop  offset="0" style="stop-color:#FF854A"/>
			<stop  offset="0.35" style="stop-color:#87A3FF"/>
			<stop  offset="0.84" style="stop-color:#0040BF"/>
		</linearGradient>
		<path style="fill:url(#SVGID_00000102529271747129426220000006525143825456463752_);" d="M514.2,132.3h-1c-3.3,6.5-8.5,12.1-16,16
			c-7.5,3.9-15.7,5.9-25.2,5.9c-10.1,0-19-2.3-26.5-6.5s-13.4-10.5-17.7-18.3c-4.3-7.9-6.2-17.3-6.2-28.1s2-20.3,6.2-28.1
			c4.3-7.9,10.1-13.7,18-18c7.5-4.3,16.4-6.2,26.5-6.2c10.1,0,19.3,2,26.5,5.6c7.2,3.9,12.1,8.8,15.1,15.1h1l0.7-19h21.3v134.2
			h-22.3v-52.4L514.2,132.3L514.2,132.3z M497.8,132.3c5.2-2.9,9.5-6.9,12.1-11.8c2.9-4.9,4.3-10.1,4.3-15.7v-7.5
			c0-5.6-1.3-10.8-4.3-15.7c-2.9-4.6-6.9-8.5-12.1-11.5c-5.2-2.9-11.8-4.3-19.3-4.3c-10.1,0-18.3,2.9-24.9,9.2
			c-6.2,6.2-9.5,14.7-9.5,25.9s3.3,19.6,9.5,25.9c6.2,6.2,14.7,9.5,24.9,9.5C486,136.9,492.6,135.3,497.8,132.3z"/>
		
			<linearGradient id="SVGID_00000159454549408575664900000010182689841820424854_" gradientUnits="userSpaceOnUse" x1="590.183" y1="439.0478" x2="19.677" y2="439.0478" gradientTransform="matrix(1 0 0 1 0 -337.96)">
			<stop  offset="0" style="stop-color:#FF854B"/>
			<stop  offset="0.35" style="stop-color:#88A3FF"/>
			<stop  offset="0.84" style="stop-color:#003FC0"/>
		</linearGradient>
		<path style="fill:url(#SVGID_00000159454549408575664900000010182689841820424854_);" d="M758.3,50.2l-0.7,19h-1
			c-2.9-6.2-8.2-11.1-15.4-15.1c-7.2-3.9-15.7-5.6-26.2-5.6c-10.5,0-19,2-26.5,6.2c-7.5,4.3-13.7,10.1-18,18s-6.2,17.3-6.2,28.1
			s2,20,6.2,27.8c4.3,7.9,10.1,14.1,17.7,18.3c7.5,4.3,16.4,6.5,26.5,6.5c9.5,0,17.7-2,25.2-5.9c7.5-3.9,13.7-11.5,17-18.3h22.3
			V50.2H758.3z M757,104.9c0,5.6-1.3,10.8-4.3,15.7c-2.9,4.9-6.9,8.8-12.1,11.8c-5.2,2.9-11.8,4.6-19.3,4.6
			c-10.1,0-18.7-3.3-24.9-9.5c-6.2-6.2-9.5-15.1-9.5-25.9c0-11.5,3.3-20,9.5-26.2s14.7-9.2,24.9-9.2c7.5,0,14.1,1.3,19.3,4.3
			c5.2,2.9,9.5,6.5,12.1,11.5c2.9,4.6,4.3,9.8,4.3,15.4C757,97.3,757,104.9,757,104.9z"/>
		
			<linearGradient id="SVGID_00000140735363835828746300000016678129155785071241_" gradientUnits="userSpaceOnUse" x1="590.183" y1="479.1413" x2="19.677" y2="479.1413" gradientTransform="matrix(1 0 0 1 0 -337.96)">
			<stop  offset="0" style="stop-color:#FF854A"/>
			<stop  offset="0.35" style="stop-color:#87A3FF"/>
			<stop  offset="0.84" style="stop-color:#0040BF"/>
		</linearGradient>
		<path style="fill:url(#SVGID_00000140735363835828746300000016678129155785071241_);" d="M796.6,141.2c0,6.2-4.9,11.1-11.1,11.1
			l0,0c-6.2,0-11.1-4.9-11.1-11.1l0,0c0-6.2,4.9-11.1,11.1-11.1l0,0C791.7,130.1,796.6,135,796.6,141.2"/>
		
			<linearGradient id="SVGID_00000050656692126535506050000000593573849326456501_" gradientUnits="userSpaceOnUse" x1="590.183" y1="361.3155" x2="19.677" y2="361.3155" gradientTransform="matrix(1 0 0 1 0 -337.96)">
			<stop  offset="0" style="stop-color:#FF854A"/>
			<stop  offset="0.35" style="stop-color:#87A3FF"/>
			<stop  offset="0.84" style="stop-color:#0040BF"/>
		</linearGradient>
		
			<rect x="147.6" y="12.2" style="fill:url(#SVGID_00000050656692126535506050000000593573849326456501_);" width="22.3" height="22.3"/>
		<g>
			
				<linearGradient id="SVGID_00000127013006733270611390000006348417062590940594_" gradientUnits="userSpaceOnUse" x1="590.183" y1="439.2114" x2="19.677" y2="439.2114" gradientTransform="matrix(1 0 0 1 0 -337.96)">
				<stop  offset="0" style="stop-color:#FF854A"/>
				<stop  offset="0.35" style="stop-color:#87A3FF"/>
				<stop  offset="0.84" style="stop-color:#0040BF"/>
			</linearGradient>
			<polygon style="fill:url(#SVGID_00000127013006733270611390000006348417062590940594_);" points="147.6,130.1 147.6,152.3 
				170.2,152.3 170.2,130.1 170.2,50.2 147.6,50.2 			"/>
			
				<linearGradient id="SVGID_00000083088227664280472790000009971462137019378583_" gradientUnits="userSpaceOnUse" x1="590.183" y1="361.3155" x2="19.677" y2="361.3155" gradientTransform="matrix(1 0 0 1 0 -337.96)">
				<stop  offset="0" style="stop-color:#FF854B"/>
				<stop  offset="0.35" style="stop-color:#88A3FF"/>
				<stop  offset="0.84" style="stop-color:#003FC0"/>
			</linearGradient>
			
				<rect x="147.6" y="12.2" style="fill:url(#SVGID_00000083088227664280472790000009971462137019378583_);" width="22.3" height="22.3"/>
		</g>
		
			<linearGradient id="SVGID_00000145739663212371000420000009301292863768465329_" gradientUnits="userSpaceOnUse" x1="590.183" y1="438.5569" x2="19.677" y2="438.5569" gradientTransform="matrix(1 0 0 1 0 -337.96)">
			<stop  offset="0" style="stop-color:#FF854A"/>
			<stop  offset="0.35" style="stop-color:#87A3FF"/>
			<stop  offset="0.84" style="stop-color:#0040BF"/>
		</linearGradient>
		<path style="fill:url(#SVGID_00000145739663212371000420000009301292863768465329_);" d="M283.8,68.2c-3.9-6.9-9.2-11.8-15.7-15.1
			c-6.5-2.9-14.4-4.6-23.2-4.6c-8.8,0-17,2-24.5,5.9s-13.1,9.5-17,16.7h-1.3l-0.7-20.9h-21.9v102.1h22.3v-50.4
			c0-7.2,1.6-13.4,4.6-18.7c2.9-5.2,7.2-9.5,12.4-12.4c5.2-2.9,11.5-4.6,18.7-4.6c10.1,0,17.3,2.9,22.3,8.5
			c4.6,5.6,7.2,14.1,7.2,25.9v52h22.6V96.3C289.3,84.6,287.7,75.1,283.8,68.2z"/>
		
			<linearGradient id="SVGID_00000062154730479482196450000010537273660812198541_" gradientUnits="userSpaceOnUse" x1="590.183" y1="440.1933" x2="19.677" y2="440.1933" gradientTransform="matrix(1 0 0 1 0 -337.96)">
			<stop  offset="0" style="stop-color:#FF854A"/>
			<stop  offset="0.35" style="stop-color:#87A3FF"/>
			<stop  offset="0.84" style="stop-color:#0040BF"/>
		</linearGradient>
		<path style="fill:url(#SVGID_00000062154730479482196450000010537273660812198541_);" d="M633.3,50.2v50.7
			c0,7.2-1.6,13.4-4.6,18.7c-2.9,5.6-7.2,9.5-12.4,12.8c-5.2,2.9-11.5,4.6-18.7,4.6c-10.1,0-17.7-2.9-22.3-8.5
			c-4.6-5.9-7.2-14.4-7.2-25.5V50.5h-22.3v56.3c0,11.5,2,20.9,5.6,27.8c3.6,6.9,8.8,12.1,15.7,15.1c6.5,2.9,14.4,4.6,23.2,4.6
			s17.3-2,24.9-5.9c7.2-3.9,14.1-10.8,18-17.7v21.9h22.3V50.2H633.3L633.3,50.2z"/>
	</g>
</g>
<g>
	<path class="st10" d="M555.7,186.5c-0.8,0-1.5-0.1-2.3-0.4c-0.8-0.2-1.4-0.6-2-0.9c-0.6-0.4-1.1-0.9-1.5-1.3s-0.7-1-0.8-1.5
		l0.9-0.4l-0.1,4.2H546v-24.4h4.1v11.1l-0.7-0.3c0.1-0.5,0.4-1,0.8-1.5c0.4-0.5,0.9-0.9,1.4-1.3c0.6-0.4,1.2-0.7,1.9-0.9
		c0.7-0.2,1.4-0.4,2.1-0.4c1.6,0,2.9,0.4,4.2,1.1c1.2,0.8,2.2,1.8,2.8,3.2c0.7,1.4,1,2.9,1,4.7s-0.3,3.3-1,4.7
		c-0.7,1.3-1.6,2.5-2.8,3.2C558.6,186.2,557.2,186.5,555.7,186.5L555.7,186.5z M554.8,183c0.9,0,1.8-0.2,2.5-0.7
		c0.7-0.5,1.3-1.1,1.7-2c0.4-0.8,0.6-1.8,0.6-2.8s-0.2-2-0.6-2.8c-0.4-0.8-1-1.4-1.7-1.9c-0.7-0.5-1.6-0.7-2.5-0.7s-1.8,0.2-2.5,0.7
		c-0.7,0.5-1.3,1.1-1.7,1.9s-0.6,1.8-0.6,2.8c0,1,0.2,2,0.6,2.8c0.4,0.8,1,1.5,1.7,2C553,182.7,553.8,183,554.8,183L554.8,183z"/>
	<path class="st10" d="M569.2,193.8l3.7-8.6v2.7l-8.6-19.2h4.7l4.8,11.4c0.2,0.3,0.3,0.7,0.5,1.1c0.2,0.5,0.3,0.9,0.4,1.4l-0.8,0.3
		c0.2-0.4,0.3-0.9,0.5-1.3c0.2-0.5,0.3-0.9,0.5-1.5l4.1-11.4h4.7l-7.3,17.4l-3,7.6L569.2,193.8L569.2,193.8z"/>
	<path class="st11" d="M606.5,186.5c-1.7,0-3.2-0.3-4.6-0.9c-1.4-0.6-2.6-1.4-3.6-2.5c-1-1.1-1.8-2.3-2.4-3.8s-0.9-3.1-0.9-4.8
		s0.3-3.2,0.9-4.7c0.6-1.4,1.4-2.7,2.5-3.8c1-1.1,2.3-1.9,3.7-2.5c1.4-0.6,2.9-0.9,4.6-0.9c1.1,0,2.2,0.2,3.3,0.5
		c1,0.3,2,0.8,2.9,1.4c0.9,0.6,1.6,1.3,2.2,2l-2.7,3c-0.6-0.6-1.2-1.1-1.8-1.5c-0.6-0.4-1.2-0.7-1.9-0.9c-0.7-0.2-1.3-0.3-2-0.3
		c-1,0-2,0.2-2.8,0.6c-0.9,0.4-1.7,0.9-2.3,1.6c-0.7,0.7-1.2,1.5-1.5,2.4c-0.4,0.9-0.6,2-0.6,3.1c0,1.2,0.2,2.2,0.6,3.2
		c0.4,0.9,0.9,1.8,1.6,2.5s1.5,1.2,2.4,1.6c0.9,0.4,2,0.6,3.1,0.6c0.7,0,1.4-0.1,2.1-0.3c0.7-0.2,1.3-0.5,1.9-0.9
		c0.6-0.4,1.1-0.8,1.6-1.3l2.1,3.4c-0.5,0.6-1.2,1.1-2.1,1.6c-0.9,0.5-1.9,0.9-2.9,1.1C608.7,186.4,607.6,186.6,606.5,186.5
		L606.5,186.5z"/>
	<path class="st11" d="M618.6,186.2v-24.5h4v10.6l-0.8,0.4c0.2-0.8,0.7-1.5,1.3-2.2c0.7-0.7,1.4-1.2,2.3-1.6
		c0.9-0.4,1.8-0.6,2.7-0.6c1.3,0,2.4,0.3,3.3,0.8c0.9,0.5,1.6,1.3,2,2.4c0.5,1,0.7,2.4,0.7,4v10.6h-4.1v-10.3c0-0.9-0.1-1.6-0.4-2.2
		s-0.6-1-1.1-1.3c-0.5-0.3-1.1-0.4-1.9-0.4c-0.6,0-1.1,0.1-1.6,0.3c-0.5,0.2-0.9,0.5-1.3,0.8c-0.4,0.3-0.7,0.7-0.9,1.2
		c-0.2,0.4-0.3,0.9-0.3,1.4v10.5L618.6,186.2L618.6,186.2z"/>
	<path class="st11" d="M645.3,186.5c-1.4,0-2.7-0.4-3.9-1.2c-1.2-0.8-2.1-1.9-2.8-3.2c-0.7-1.4-1-2.9-1-4.6c0-1.7,0.4-3.3,1-4.7
		c0.7-1.4,1.7-2.4,2.9-3.2c1.2-0.8,2.6-1.1,4.1-1.1c0.9,0,1.7,0.1,2.4,0.4c0.7,0.3,1.4,0.6,1.9,1.1s1,1,1.4,1.6
		c0.4,0.6,0.6,1.2,0.8,1.9l-0.9-0.2v-4.4h4.1v17.4h-4.1v-4.2l0.9-0.2c-0.2,0.6-0.4,1.2-0.9,1.7c-0.4,0.6-0.9,1-1.5,1.5
		c-0.6,0.4-1.3,0.8-2,1C646.9,186.5,646.2,186.6,645.3,186.5L645.3,186.5z M646.4,182.9c0.9,0,1.8-0.2,2.5-0.7
		c0.7-0.5,1.3-1.1,1.7-1.9s0.6-1.8,0.6-2.8s-0.2-2-0.6-2.8c-0.4-0.8-1-1.4-1.7-1.9s-1.6-0.7-2.5-0.7c-0.9,0-1.8,0.2-2.5,0.7
		c-0.7,0.5-1.3,1.1-1.7,1.9c-0.4,0.8-0.6,1.8-0.6,2.8c0,1,0.2,2,0.6,2.8c0.4,0.8,0.9,1.5,1.7,1.9
		C644.6,182.7,645.5,182.9,646.4,182.9z"/>
	<path class="st12" d="M659.9,193.5v-24.7h4l0.1,4l-0.7-0.3c0.1-0.7,0.5-1.3,1.1-1.9c0.6-0.6,1.4-1.1,2.3-1.5
		c0.9-0.4,1.8-0.6,2.8-0.6c1.5,0,2.9,0.4,4.1,1.1c1.2,0.8,2.2,1.8,2.8,3.2s1,2.9,1,4.6c0,1.7-0.4,3.3-1,4.6
		c-0.7,1.3-1.6,2.4-2.8,3.2c-1.2,0.8-2.6,1.2-4.1,1.2c-1,0-2-0.2-2.9-0.6c-0.9-0.4-1.7-0.9-2.4-1.6c-0.7-0.7-1-1.3-1.2-2l1-0.5v11.6
		L659.9,193.5L659.9,193.5z M668.7,182.9c0.9,0,1.8-0.2,2.5-0.7s1.3-1.1,1.7-1.9c0.4-0.8,0.6-1.8,0.6-2.8c0-1-0.2-2-0.6-2.8
		c-0.4-0.8-0.9-1.4-1.7-1.9c-0.7-0.5-1.6-0.7-2.5-0.7c-0.9,0-1.8,0.2-2.5,0.7c-0.7,0.5-1.3,1.1-1.7,1.9s-0.6,1.8-0.6,2.8
		c0,1,0.2,2,0.6,2.8s1,1.4,1.7,1.9C666.9,182.7,667.8,182.9,668.7,182.9L668.7,182.9z"/>
	<path class="st12" d="M687,186.5c-1.5,0-2.9-0.3-4.2-0.8c-1.2-0.5-2.2-1.3-3-2.2l2.7-2.3c0.7,0.8,1.4,1.3,2.2,1.6
		c0.8,0.3,1.7,0.5,2.6,0.5c0.4,0,0.7,0,1-0.1s0.6-0.2,0.8-0.4c0.2-0.2,0.4-0.4,0.5-0.6c0.1-0.2,0.2-0.5,0.2-0.8
		c0-0.5-0.2-0.9-0.6-1.2c-0.2-0.2-0.6-0.3-1-0.5c-0.5-0.2-1.1-0.4-1.8-0.5c-1.2-0.3-2.2-0.7-3-1.1c-0.8-0.4-1.4-0.9-1.9-1.4
		c-0.4-0.4-0.7-0.9-0.9-1.4c-0.2-0.5-0.3-1.1-0.3-1.7c0-0.8,0.2-1.5,0.5-2.1c0.3-0.6,0.8-1.2,1.4-1.6s1.3-0.8,2.1-1
		c0.8-0.2,1.6-0.4,2.5-0.4s1.7,0.1,2.6,0.3s1.6,0.5,2.3,0.9c0.7,0.4,1.3,0.9,1.8,1.5l-2.3,2.5c-0.4-0.4-0.9-0.8-1.4-1
		c-0.5-0.3-1-0.6-1.5-0.8c-0.5-0.2-1-0.3-1.4-0.3c-0.4,0-0.8,0-1.1,0.1c-0.3,0.1-0.6,0.2-0.8,0.4c-0.2,0.2-0.4,0.4-0.5,0.6
		s-0.2,0.5-0.2,0.8c0,0.3,0.1,0.5,0.2,0.8c0.1,0.2,0.3,0.4,0.5,0.6c0.2,0.2,0.6,0.3,1.1,0.5c0.5,0.2,1.1,0.4,1.9,0.6
		c1.1,0.3,2,0.6,2.7,0.9c0.7,0.4,1.3,0.8,1.7,1.2c0.4,0.4,0.7,0.9,0.9,1.4c0.2,0.5,0.3,1.1,0.3,1.8c0,1-0.3,2-0.9,2.8
		c-0.6,0.8-1.4,1.4-2.4,1.9C689.4,186.4,688.3,186.6,687,186.5L687,186.5z"/>
	<path class="st12" d="M704.5,186.2l-9.3-23.1h4.7l5.2,13.3c0.3,0.7,0.5,1.3,0.7,1.8s0.4,1,0.5,1.5c0.2,0.4,0.3,0.9,0.4,1.3
		c0.1,0.4,0.3,0.9,0.4,1.3h-0.9c0.2-0.6,0.3-1.2,0.5-1.8s0.4-1.2,0.6-1.9s0.5-1.4,0.9-2.3L713,163h4.7l-9.3,23.1L704.5,186.2
		L704.5,186.2z"/>
	<path class="st12" d="M723.1,165.1c-0.8,0-1.4-0.2-1.9-0.6c-0.5-0.4-0.7-1-0.7-1.7c0-0.7,0.2-1.3,0.7-1.7c0.5-0.5,1.1-0.7,1.9-0.7
		c0.9,0,1.5,0.2,1.9,0.6c0.5,0.4,0.7,1,0.7,1.8c0,0.7-0.2,1.2-0.7,1.7C724.5,164.9,723.9,165.1,723.1,165.1z M721.1,186.2v-17.4h4.1
		v17.4C725.2,186.2,721.1,186.2,721.1,186.2z"/>
	<path class="st12" d="M736.2,186.5c-1.5,0-2.9-0.3-4.2-0.8c-1.2-0.5-2.2-1.3-3-2.2l2.7-2.3c0.7,0.8,1.4,1.3,2.2,1.6
		c0.8,0.3,1.7,0.5,2.6,0.5c0.4,0,0.7,0,1-0.1s0.6-0.2,0.8-0.4c0.2-0.2,0.4-0.4,0.5-0.6c0.1-0.2,0.2-0.5,0.2-0.8
		c0-0.5-0.2-0.9-0.6-1.2c-0.2-0.2-0.6-0.3-1-0.5c-0.5-0.2-1.1-0.4-1.8-0.5c-1.2-0.3-2.2-0.7-3-1.1c-0.8-0.4-1.4-0.9-1.9-1.4
		c-0.4-0.4-0.7-0.9-0.9-1.4c-0.2-0.5-0.3-1.1-0.3-1.7c0-0.8,0.2-1.5,0.5-2.1c0.3-0.6,0.8-1.2,1.4-1.6c0.6-0.5,1.3-0.8,2.1-1
		c0.8-0.2,1.6-0.4,2.5-0.4c0.9,0,1.7,0.1,2.6,0.3s1.6,0.5,2.3,0.9c0.7,0.4,1.3,0.9,1.8,1.5l-2.3,2.5c-0.4-0.4-0.9-0.8-1.4-1
		c-0.5-0.3-1-0.6-1.5-0.8s-1-0.3-1.4-0.3c-0.4,0-0.8,0-1.1,0.1c-0.3,0.1-0.6,0.2-0.8,0.4c-0.2,0.2-0.4,0.4-0.5,0.6s-0.2,0.5-0.2,0.8
		c0,0.3,0.1,0.5,0.2,0.8c0.1,0.2,0.3,0.4,0.5,0.6s0.6,0.3,1.1,0.5c0.5,0.2,1.1,0.4,1.9,0.6c1.1,0.3,2,0.6,2.7,0.9
		c0.7,0.4,1.3,0.8,1.7,1.2c0.4,0.4,0.7,0.9,0.9,1.4c0.2,0.5,0.3,1.1,0.3,1.8c0,1-0.3,2-0.9,2.8c-0.6,0.8-1.4,1.4-2.4,1.9
		C738.6,186.4,737.5,186.6,736.2,186.5L736.2,186.5z"/>
	<path class="st12" d="M748.8,165.1c-0.8,0-1.4-0.2-1.9-0.6c-0.5-0.4-0.7-1-0.7-1.7c0-0.7,0.2-1.3,0.7-1.7c0.5-0.4,1.1-0.7,1.9-0.7
		c0.9,0,1.5,0.2,1.9,0.6c0.5,0.4,0.7,1,0.7,1.8c0,0.7-0.2,1.2-0.7,1.7C750.3,164.9,749.6,165.1,748.8,165.1z M746.8,186.2v-17.4h4.1
		v17.4C750.9,186.2,746.8,186.2,746.8,186.2z"/>
	<path class="st12" d="M764,186.5c-1.7,0-3.3-0.4-4.6-1.2s-2.5-1.9-3.2-3.2c-0.8-1.4-1.2-2.9-1.2-4.6c0-1.7,0.4-3.3,1.2-4.6
		c0.8-1.4,1.9-2.5,3.2-3.2c1.4-0.8,2.9-1.2,4.6-1.2s3.3,0.4,4.6,1.2c1.4,0.8,2.5,1.9,3.2,3.2c0.8,1.4,1.2,2.9,1.2,4.6
		c0,1.7-0.4,3.3-1.2,4.6s-1.9,2.5-3.2,3.2S765.8,186.5,764,186.5z M764,182.9c0.9,0,1.8-0.2,2.5-0.7c0.7-0.5,1.3-1.1,1.8-2
		c0.4-0.8,0.6-1.7,0.6-2.8c0-1-0.2-2-0.6-2.8s-1-1.5-1.8-1.9c-0.8-0.5-1.6-0.7-2.5-0.7s-1.8,0.2-2.6,0.7c-0.8,0.5-1.3,1.1-1.8,2
		c-0.4,0.8-0.6,1.8-0.6,2.8s0.2,2,0.6,2.8s1,1.5,1.8,2C762.2,182.7,763.1,182.9,764,182.9z"/>
	<path class="st12" d="M776.7,186.2v-17.4h4l0.1,3.6l-0.8,0.4c0.2-0.8,0.7-1.5,1.3-2.2c0.7-0.7,1.4-1.2,2.3-1.6
		c0.9-0.4,1.8-0.6,2.7-0.6c1.3,0,2.4,0.3,3.3,0.8c0.9,0.5,1.6,1.3,2,2.4c0.5,1,0.7,2.4,0.7,4v10.6h-4.1v-10.3c0-0.9-0.1-1.6-0.4-2.2
		s-0.6-1-1.1-1.3c-0.5-0.3-1.1-0.4-1.9-0.4c-0.6,0-1.1,0.1-1.6,0.3c-0.5,0.2-0.9,0.5-1.3,0.8c-0.4,0.3-0.7,0.7-0.9,1.2
		c-0.2,0.4-0.3,0.9-0.3,1.4v10.5L776.7,186.2L776.7,186.2z"/>
</g>
</svg>
